<?xml version="1.0"?>
<svg width="640" height="480" xmlns="http://www.w3.org/2000/svg" xmlns:svg="http://www.w3.org/2000/svg" xmlns:xlink="http://www.w3.org/1999/xlink">
 <!-- Created with SVG-edit - http://svg-edit.googlecode.com/ -->
 <defs>
  <symbol id="svg_1" viewBox="0 0 1024 1024" class="icon" xmlns:xlink="http://www.w3.org/1999/xlink" xmlns="http://www.w3.org/2000/svg">
   <defs>
    <style type="text/css"/>
   </defs>
   <path fill="#1296db" d="m922.41435,541.92659c-22.81666,-4.1362 -44.66936,11.13153 -48.74417,33.96149c-24.89499,139.33439 -129.40628,252.51513 -266.2653,288.35029c-194.13653,50.93916 -393.55128,-65.63282 -444.4843,-259.81028c-50.89106,-194.2184 65.70137,-393.63418 259.89931,-444.5324c94.06333,-24.65554 192.09913,-11.21339 276.05629,37.87972c83.95715,49.07981 143.77145,127.91532 168.42801,221.97865c5.87378,22.43394 28.80607,35.85563 51.28811,29.98185c22.4411,-5.87992 35.86893,-28.84086 29.98185,-51.28811c-30.34513,-115.77174 -103.96382,-212.79652 -207.285,-273.21252c-103.33448,-60.40269 -224.00991,-76.98332 -339.7745,-46.6116c-239.01056,62.64067 -382.50264,308.07145 -319.86403,547.10964c52.72381,201.04999 234.7577,334.48298 433.49605,334.48298c37.50315,0 75.61618,-4.75223 113.55015,-14.70082c168.42085,-44.10142 297.04737,-183.38772 327.67901,-354.84472c4.08197,-22.84327 -11.12436,-44.6622 -33.96148,-48.74417z" id="svg_4"/>
   <path fill="#1296db" d="m764.58472,512.088c0,-23.19937 -18.80326,-42.00979 -42.00979,-42.00979l-285.42568,-0.01228l120.80641,-120.80641c16.40974,-16.4036 16.40974,-43.00137 0,-59.40395c-16.39644,-16.40973 -43.00751,-16.40973 -59.40395,0l-192.09197,192.093c-0.1535,0.14838 -0.33462,0.24559 -0.48505,0.39704c-10.26171,10.26172 -14.10013,24.51535 -11.52038,37.76716c1.53496,7.95314 5.38055,15.54709 11.54085,21.70535c0.08084,0.08186 0.1801,0.13303 0.26196,0.21489l192.29459,192.26696c8.20487,8.1977 18.95368,12.30116 29.70248,12.30116c10.74881,0 21.50376,-4.10243 29.70863,-12.3073c16.4036,-16.4036 16.4036,-43.00751 -0.00716,-59.41111l-120.81256,-120.79721l285.43285,0.01228c23.19937,0 42.00877,-18.81041 42.00877,-42.00979z" id="svg_5"/>
  </symbol>
 </defs>
 <g>
  <title>Layer 1</title>
  <use x="398.743763" y="385.585157" transform="rotate(180 269.70257568359375,246.70903015136722) matrix(1.1101531237363815,0,0,1.0881011188030243,-516.6266657566739,-430.0299080963159) " xlink:href="#svg_1" id="svg_2"/>
  <g id="svg_3"/>
 </g>
</svg>